<?xml version="1.0" standalone="no"?>
<!DOCTYPE svg PUBLIC "-//W3C//DTD SVG 20010904//EN"
 "http://www.w3.org/TR/2001/REC-SVG-20010904/DTD/svg10.dtd">
<svg version="1.0" xmlns="http://www.w3.org/2000/svg"
 width="500.000000pt" height="500.000000pt" viewBox="0 0 500.000000 500.000000"
 preserveAspectRatio="xMidYMid meet">

<g transform="translate(0.000000,500.000000) scale(0.100000,-0.100000)"
fill="#000000" stroke="none">
<path d="M2455 4303 c-306 -40 -590 -177 -800 -388 -209 -208 -348 -496 -385
-795 -11 -93 -13 -170 -4 -170 3 0 110 -25 237 -55 492 -118 704 -213 896
-402 46 -46 86 -83 88 -83 1 0 3 35 3 79 0 204 85 474 199 631 102 140 228
246 401 334 129 66 285 121 493 172 86 21 157 42 157 47 0 19 -84 129 -157
207 -218 232 -487 371 -810 419 -68 10 -252 13 -318 4z"/>
<path d="M4258 3682 c-41 -69 -209 -145 -424 -192 -521 -112 -772 -223 -937
-413 -153 -176 -217 -375 -217 -672 l0 -165 88 70 c171 139 376 262 521 311
81 28 106 25 51 -8 -237 -140 -585 -522 -771 -848 l-34 -60 -8 60 c-37 274
-102 427 -241 574 -163 171 -357 258 -824 370 -335 81 -434 120 -500 195 l-30
35 -7 -37 c-14 -83 -21 -342 -14 -473 29 -510 211 -873 543 -1087 212 -136
450 -197 744 -190 l163 3 31 -40 c59 -78 136 -201 178 -285 64 -129 83 -142
136 -97 39 34 35 70 -18 174 -175 343 -521 733 -816 921 -41 25 -69 48 -63 50
6 2 43 -1 82 -7 160 -25 301 -105 498 -283 115 -104 143 -122 171 -113 12 4
42 49 77 118 59 113 129 224 180 285 l28 34 210 2 c186 3 222 6 317 29 298 72
540 236 695 471 99 151 180 375 215 601 14 89 15 554 1 643 l-8 53 -17 -29z
m-128 -182 c-16 -30 -121 -114 -202 -161 -98 -57 -194 -97 -433 -180 -110 -38
-247 -92 -305 -120 -91 -45 -116 -63 -190 -138 -102 -103 -160 -208 -206 -371
l-29 -105 -3 51 c-4 74 30 229 70 315 115 246 309 366 817 505 174 48 347 124
451 198 43 31 43 31 30 6z m-3065 -750 c12 -19 151 -95 243 -132 51 -20 191
-66 311 -102 339 -101 470 -165 592 -289 114 -115 189 -293 204 -487 6 -88 2
-81 -51 84 -48 150 -108 249 -208 344 -94 89 -204 144 -473 238 -256 89 -304
108 -408 165 -97 54 -208 137 -225 169 -11 20 3 30 15 10z"/>
</g>
</svg>
